<?xml version="1.0" encoding="UTF-8" standalone="no"?>
<!-- Created with Inkscape (http://www.inkscape.org/) -->

<svg
   xmlns:dc="http://purl.org/dc/elements/1.1/"
   xmlns:cc="http://creativecommons.org/ns#"
   xmlns:rdf="http://www.w3.org/1999/02/22-rdf-syntax-ns#"
   xmlns:svg="http://www.w3.org/2000/svg"
   xmlns="http://www.w3.org/2000/svg"
   xmlns:sodipodi="http://sodipodi.sourceforge.net/DTD/sodipodi-0.dtd"
   xmlns:inkscape="http://www.inkscape.org/namespaces/inkscape"
   width="28"
   height="28"
   viewBox="0 0 7.4083337 7.4083329"
   version="1.1"
   id="svg4495"
   inkscape:version="0.92.1 r"
   sodipodi:docname="copy.svg">
  <defs
     id="defs4489" />
  <sodipodi:namedview
     id="base"
     pagecolor="#ffffff"
     bordercolor="#666666"
     borderopacity="1.0"
     inkscape:pageopacity="0.0"
     inkscape:pageshadow="2"
     inkscape:zoom="11.2"
     inkscape:cx="29.804418"
     inkscape:cy="3.3497951"
     inkscape:document-units="mm"
     inkscape:current-layer="layer1"
     showgrid="false"
     fit-margin-top="0"
     fit-margin-left="0"
     fit-margin-right="0"
     fit-margin-bottom="0"
     inkscape:window-width="1920"
     inkscape:window-height="1007"
     inkscape:window-x="0"
     inkscape:window-y="0"
     inkscape:window-maximized="1"
     units="px" />
  <metadata
     id="metadata4492">
    <rdf:RDF>
      <cc:Work
         rdf:about="">
        <dc:format>image/svg+xml</dc:format>
        <dc:type
           rdf:resource="http://purl.org/dc/dcmitype/StillImage" />
        <dc:title></dc:title>
      </cc:Work>
    </rdf:RDF>
  </metadata>
  <g
     inkscape:label="Layer 1"
     inkscape:groupmode="layer"
     id="layer1"
     transform="translate(-85.61471,-161.18125)">
    <g
       id="g5044"
       transform="matrix(0.0055694,0,0,0.0055694,86.534177,162.10072)">
      <path
         id="path5042"
         d="m 255,990 c -40.8,0 -40.8,-40.8 -40.8,-40.8 V 173.3 c 0,0 0,-40.8 40.8,-40.8 h 612.5 c 40.8,0 40.8,40.8 40.8,40.8 V 704.1 L 622.5,990 Z m 0,-40.8 h 367.5 l 245,-245 V 173.3 H 255 Z m 363.4,34.7 c -1.6,0 -3.2,-0.3 -4.7,-0.9 -4.6,-1.9 -32.1,-28.8 -32.1,-33.8 v -245 c 0,0 0,-40.8 40.8,-40.8 h 285.8 c 0,0 -29.2,29.1 -32.7,32.7 L 627,980.3 c -2.3,2.4 -5.4,3.6 -8.6,3.6 z m 4.1,-279.7 v 245 l 245,-245 z M 785.8,336.7 H 336.7 v -40.8 h 449.2 v 40.8 z m 0,122.5 H 336.7 v -40.8 h 449.2 v 40.8 z m 0,122.5 H 336.7 v -40.8 h 449.2 v 40.8 z M 173.3,785.8 H 132.5 V 50.8 H 704.2 V 91.6 H 745 V 50.8 c 0,0 0,-40.8 -40.8,-40.8 H 132.5 C 91.7,10 91.7,50.8 91.7,50.8 v 735 c 0,0 0,40.8 40.8,40.8 h 40.8 z"
         inkscape:connector-curvature="0" />
    </g>
  </g>
</svg>
