<?xml version="1.0" encoding="UTF-8" standalone="no"?>
<!-- Created with Inkscape (http://www.inkscape.org/) -->

<svg
   xmlns:dc="http://purl.org/dc/elements/1.1/"
   xmlns:cc="http://creativecommons.org/ns#"
   xmlns:rdf="http://www.w3.org/1999/02/22-rdf-syntax-ns#"
   xmlns:svg="http://www.w3.org/2000/svg"
   xmlns="http://www.w3.org/2000/svg"
   xmlns:sodipodi="http://sodipodi.sourceforge.net/DTD/sodipodi-0.dtd"
   xmlns:inkscape="http://www.inkscape.org/namespaces/inkscape"
   width="11.959845mm"
   height="14.150009mm"
   viewBox="0 0 11.959845 14.150009"
   version="1.1"
   id="svg8"
   inkscape:version="0.92.2 2405546, 2018-03-11"
   sodipodi:docname="drag.svg">
  <defs
     id="defs2" />
  <sodipodi:namedview
     id="base"
     pagecolor="#ffffff"
     bordercolor="#666666"
     borderopacity="1.0"
     inkscape:pageopacity="0.0"
     inkscape:pageshadow="2"
     inkscape:zoom="11.313709"
     inkscape:cx="45.56495"
     inkscape:cy="25.921911"
     inkscape:document-units="mm"
     inkscape:current-layer="g4527"
     showgrid="false"
     inkscape:window-width="1916"
     inkscape:window-height="1041"
     inkscape:window-x="0"
     inkscape:window-y="18"
     inkscape:window-maximized="0"
     fit-margin-top="0"
     fit-margin-left="0"
     fit-margin-right="-1.2"
     fit-margin-bottom="-1.1" />
  <metadata
     id="metadata5">
    <rdf:RDF>
      <cc:Work
         rdf:about="">
        <dc:format>image/svg+xml</dc:format>
        <dc:type
           rdf:resource="http://purl.org/dc/dcmitype/StillImage" />
        <dc:title></dc:title>
      </cc:Work>
    </rdf:RDF>
  </metadata>
  <g
     inkscape:label="Layer 1"
     inkscape:groupmode="layer"
     id="layer1"
     transform="translate(-116.66145,-92.238071)">
    <path
       inkscape:connector-curvature="0"
       d="m 129.86806,107.49584 c -0.0275,0.0275 -0.0595,0.0495 -0.0944,0.0624 0.0349,-0.0145 0.0667,-0.0362 0.0944,-0.0624 z"
       id="path3696"
       style="fill:#aaaaaa;fill-opacity:1;stroke-width:0.26458332" />
    <g
       id="g4527"
       transform="matrix(1.1101527,0,0,1.1101527,-22.111976,-8.859012)"
       style="fill:#aaaaaa;fill-opacity:1">
      <g
         id="surface1"
         transform="matrix(0.23833058,0,0,0.23833058,123.37772,90.652461)">
        <path
           id="path3720"
           d="M 7,2 V 48 H 43 V 14.59375 l -0.28125,-0.3125 -12,-12 L 30.40625,2 Z M 9,4 H 29 V 16 H 41 V 46 H 9 Z M 31,5.4375 39.5625,14 H 31 Z M 15,22 v 2 h 20 v -2 z m 0,6 v 2 h 16 v -2 z m 0,6 v 2 h 20 v -2 z"
           inkscape:connector-curvature="0" />
      </g>
      <path
         inkscape:connector-curvature="0"
         id="path4521"
         d="m 131.36136,102.00615 0.14469,1.09968 0.57878,0.45889 h 2.02143 l 0.9296,-0.70834 0.5788,-0.90036 -0.1637,-1.16931 -1.77149,-1.771492 -0.59635,0.26894 -0.12862,0.2514 -0.66066,-0.152009 -0.36248,0.555419 -0.60219,-0.01754 -0.12863,0.520342 0.0175,0.34495 -0.46772,0.33325 0.11108,0.36248 z"
         style="fill:#ffffff;fill-opacity:1;stroke:none;stroke-width:0.26458332px;stroke-linecap:butt;stroke-linejoin:miter;stroke-opacity:1" />
      <g
         transform="matrix(0.26458333,0,0,0.26458333,130.02971,98.216435)"
         id="g4495"
         style="fill:#aaaaaa;fill-opacity:1">
        <g
           id="g4493"
           style="fill:#aaaaaa;fill-opacity:1">
          <path
             id="path4491"
             d="M 14.057,21.129 H 9.129 c -2.481,0 -4.5,-2.019 -4.5,-4.5 V 14.836 L 3.034,13.241 C 2.15,12.357 2.15,10.918 3.034,10.034 3.371,9.698 3.795,9.48 4.255,9.402 3.663,8.521 3.756,7.313 4.534,6.534 5.238,5.83 6.292,5.687 7.138,6.102 7.199,5.62 7.414,5.154 7.784,4.784 8.641,3.926 10.02,3.9 10.91,4.707 c 0.085,-0.441 0.299,-0.848 0.624,-1.173 0.885,-0.885 2.322,-0.885 3.207,0 l 4.974,4.974 c 1.234,1.234 1.914,2.875 1.914,4.621 0,1.746 -0.68,3.387 -1.914,4.621 l -1.768,1.768 c -1.04,1.039 -2.421,1.611 -3.89,1.611 z M 5.629,15.836 v 0.793 c 0,1.93 1.57,3.5 3.5,3.5 h 4.929 c 1.201,0 2.332,-0.468 3.183,-1.318 l 1.768,-1.768 c 1.045,-1.045 1.621,-2.436 1.621,-3.914 0,-1.478 -0.576,-2.869 -1.621,-3.914 L 14.035,4.241 c -0.479,-0.479 -1.314,-0.479 -1.793,0 -0.494,0.494 -0.494,1.299 0,1.793 l 0.241,0.241 c 0.098,0.098 0.146,0.226 0.146,0.354 0,0.128 -0.049,0.256 -0.146,0.354 -0.195,0.195 -0.512,0.195 -0.707,0 L 10.285,5.492 C 9.791,4.998 8.986,4.998 8.492,5.492 8.252,5.731 8.12,6.05 8.12,6.388 c 0,0.338 0.132,0.657 0.371,0.896 l 1.491,1.491 c 0.098,0.098 0.146,0.226 0.146,0.354 0,0.128 -0.048,0.256 -0.146,0.354 -0.195,0.195 -0.512,0.195 -0.707,0 L 7.034,7.241 C 6.54,6.747 5.735,6.747 5.241,7.241 4.747,7.735 4.747,8.54 5.241,9.034 l 2.241,2.241 c 0.098,0.098 0.146,0.226 0.146,0.354 0,0.128 -0.049,0.256 -0.146,0.354 -0.195,0.195 -0.512,0.195 -0.707,0 L 5.534,10.742 C 5.055,10.263 4.22,10.263 3.741,10.742 3.502,10.981 3.37,11.3 3.37,11.638 c 0,0.338 0.132,0.657 0.371,0.896 l 3.741,3.741 c 0.098,0.098 0.146,0.226 0.146,0.354 0,0.128 -0.049,0.256 -0.146,0.354 -0.195,0.195 -0.512,0.195 -0.707,0 z"
             inkscape:connector-curvature="0"
             style="fill:#aaaaaa;fill-opacity:1" />
        </g>
      </g>
    </g>
  </g>
</svg>
