<?xml version="1.0" encoding="UTF-8" standalone="no"?>
<!-- Created with Inkscape (http://www.inkscape.org/) -->

<svg
   xmlns:dc="http://purl.org/dc/elements/1.1/"
   xmlns:cc="http://creativecommons.org/ns#"
   xmlns:rdf="http://www.w3.org/1999/02/22-rdf-syntax-ns#"
   xmlns:svg="http://www.w3.org/2000/svg"
   xmlns="http://www.w3.org/2000/svg"
   xmlns:sodipodi="http://sodipodi.sourceforge.net/DTD/sodipodi-0.dtd"
   xmlns:inkscape="http://www.inkscape.org/namespaces/inkscape"
   width="13.617103mm"
   height="12.334908mm"
   viewBox="0 0 13.617103 12.334908"
   version="1.1"
   id="svg8"
   inkscape:version="0.92.1 r"
   sodipodi:docname="drag.svg">
  <defs
     id="defs2" />
  <sodipodi:namedview
     id="base"
     pagecolor="#ffffff"
     bordercolor="#666666"
     borderopacity="1.0"
     inkscape:pageopacity="0.0"
     inkscape:pageshadow="2"
     inkscape:zoom="5.6568543"
     inkscape:cx="47.635551"
     inkscape:cy="13.438879"
     inkscape:document-units="mm"
     inkscape:current-layer="g4527"
     showgrid="false"
     inkscape:window-width="1920"
     inkscape:window-height="1007"
     inkscape:window-x="0"
     inkscape:window-y="0"
     inkscape:window-maximized="1"
     fit-margin-top="0"
     fit-margin-left="0"
     fit-margin-right="0"
     fit-margin-bottom="0" />
  <metadata
     id="metadata5">
    <rdf:RDF>
      <cc:Work
         rdf:about="">
        <dc:format>image/svg+xml</dc:format>
        <dc:type
           rdf:resource="http://purl.org/dc/dcmitype/StillImage" />
        <dc:title />
      </cc:Work>
    </rdf:RDF>
  </metadata>
  <g
     inkscape:label="Layer 1"
     inkscape:groupmode="layer"
     id="layer1"
     transform="translate(-114.92393,-93.118075)">
    <path
       inkscape:connector-curvature="0"
       d="m 127.66441,101.82472 c 0,-3.58205 0,-6.934026 0,-8.416133 0,-0.161131 -0.1307,-0.290512 -0.29051,-0.290512 h -12.15946 c -0.16113,0 -0.29051,0.129381 -0.29051,0.290512 V 103.5879 c 0,0.15981 0.12938,0.29051 0.29051,0.29051 h 9.79461 c 3.14894,-0.1979 2.37383,-1.14717 2.65536,-2.05369 z M 115.50495,93.6991 h 11.57817 v 5.900208 l -2.98794,-2.986352 c -0.10901,-0.109009 -0.30215,-0.109009 -0.41116,0 l -4.04231,4.040984 -1.35228,-1.350966 c -0.10901,-0.109008 -0.30216,-0.109008 -0.41116,0 l -2.37358,2.371986 V 93.6991 Z m 0,9.59829 v -0.8001 l 2.57969,-2.578366 1.35229,1.352286 c 0.109,0.10901 0.30056,0.10901 0.40957,0 l 4.04257,-4.042304 3.19405,3.192724 v 1.2028 c -0.48779,0.64019 1.09765,1.3819 -2.27472,1.67261 z"
       id="path3694"
       style="stroke-width:0.26458332;fill:#aaaaaa;fill-opacity:1"
       sodipodi:nodetypes="ccssccsccccccccccccccccccccccc" />
    <path
       inkscape:connector-curvature="0"
       d="m 129.82129,107.42568 c -0.0275,0.0275 -0.0595,0.0495 -0.0944,0.0624 0.0349,-0.0145 0.0667,-0.0362 0.0944,-0.0624 z"
       id="path3696"
       style="stroke-width:0.26458332;fill:#aaaaaa;fill-opacity:1" />
    <g
       id="g3740"
       transform="matrix(0.26458333,0,0,0.26458333,109.88732,89.355435)"
       style="fill:#aaaaaa;fill-opacity:1">
      <g
         id="g3738"
         style="fill:#aaaaaa;fill-opacity:1">
        <path
           inkscape:connector-curvature="0"
           d="m 33.603,32.895 c -2.999,0 -5.438,-2.44 -5.438,-5.438 0,-2.999 2.44,-5.438 5.438,-5.438 2.998,0 5.438,2.44 5.438,5.438 0,2.998 -2.439,5.438 -5.438,5.438 z m 0,-8.681 c -1.788,0 -3.242,1.455 -3.242,3.242 0,1.788 1.455,3.242 3.242,3.242 1.788,0 3.242,-1.455 3.242,-3.242 0,-1.787 -1.454,-3.242 -3.242,-3.242 z"
           id="path3736"
           style="fill:#aaaaaa;fill-opacity:1" />
      </g>
    </g>
    <g
       id="g4527"
       transform="matrix(1.1101527,0,0,1.1101527,-22.111976,-8.859012)"
       style="fill:#aaaaaa;fill-opacity:1">
      <path
         inkscape:connector-curvature="0"
         id="path4521"
         d="m 131.33223,101.2435 0.14469,1.09968 0.57878,0.45889 h 2.02143 l 0.9296,-0.70834 0.5788,-0.90036 -0.1637,-1.16931 -1.77149,-1.771491 -0.59635,0.26894 -0.12862,0.2514 -0.66066,-0.152009 -0.36248,0.555419 -0.60219,-0.01754 -0.12863,0.520341 0.0175,0.34495 -0.46772,0.33325 0.11108,0.36248 z"
         style="fill:#ffffff;fill-opacity:1;stroke:none;stroke-width:0.26458332px;stroke-linecap:butt;stroke-linejoin:miter;stroke-opacity:1" />
      <g
         transform="matrix(0.26458333,0,0,0.26458333,129.98209,97.379232)"
         id="g4495"
         style="fill:#aaaaaa;fill-opacity:1">
        <g
           id="g4493"
           style="fill:#aaaaaa;fill-opacity:1">
          <path
             id="path4491"
             d="M 14.057,21.129 H 9.129 c -2.481,0 -4.5,-2.019 -4.5,-4.5 V 14.836 L 3.034,13.241 C 2.15,12.357 2.15,10.918 3.034,10.034 3.371,9.698 3.795,9.48 4.255,9.402 3.663,8.521 3.756,7.313 4.534,6.534 5.238,5.83 6.292,5.687 7.138,6.102 7.199,5.62 7.414,5.154 7.784,4.784 8.641,3.926 10.02,3.9 10.91,4.707 c 0.085,-0.441 0.299,-0.848 0.624,-1.173 0.885,-0.885 2.322,-0.885 3.207,0 l 4.974,4.974 c 1.234,1.234 1.914,2.875 1.914,4.621 0,1.746 -0.68,3.387 -1.914,4.621 l -1.768,1.768 c -1.04,1.039 -2.421,1.611 -3.89,1.611 z M 5.629,15.836 v 0.793 c 0,1.93 1.57,3.5 3.5,3.5 h 4.929 c 1.201,0 2.332,-0.468 3.183,-1.318 l 1.768,-1.768 c 1.045,-1.045 1.621,-2.436 1.621,-3.914 0,-1.478 -0.576,-2.869 -1.621,-3.914 L 14.035,4.241 c -0.479,-0.479 -1.314,-0.479 -1.793,0 -0.494,0.494 -0.494,1.299 0,1.793 l 0.241,0.241 c 0.098,0.098 0.146,0.226 0.146,0.354 0,0.128 -0.049,0.256 -0.146,0.354 -0.195,0.195 -0.512,0.195 -0.707,0 L 10.285,5.492 C 9.791,4.998 8.986,4.998 8.492,5.492 8.252,5.731 8.12,6.05 8.12,6.388 c 0,0.338 0.132,0.657 0.371,0.896 l 1.491,1.491 c 0.098,0.098 0.146,0.226 0.146,0.354 0,0.128 -0.048,0.256 -0.146,0.354 -0.195,0.195 -0.512,0.195 -0.707,0 L 7.034,7.241 C 6.54,6.747 5.735,6.747 5.241,7.241 4.747,7.735 4.747,8.54 5.241,9.034 l 2.241,2.241 c 0.098,0.098 0.146,0.226 0.146,0.354 0,0.128 -0.049,0.256 -0.146,0.354 -0.195,0.195 -0.512,0.195 -0.707,0 L 5.534,10.742 C 5.055,10.263 4.22,10.263 3.741,10.742 3.502,10.981 3.37,11.3 3.37,11.638 c 0,0.338 0.132,0.657 0.371,0.896 l 3.741,3.741 c 0.098,0.098 0.146,0.226 0.146,0.354 0,0.128 -0.049,0.256 -0.146,0.354 -0.195,0.195 -0.512,0.195 -0.707,0 z"
             inkscape:connector-curvature="0"
             style="fill:#aaaaaa;fill-opacity:1" />
        </g>
      </g>
    </g>
  </g>
</svg>
