<?xml version="1.0" encoding="UTF-8" standalone="no"?>
<!-- Generator: Adobe Illustrator 15.0.2, SVG Export Plug-In . SVG Version: 6.00 Build 0)  -->

<svg
   xmlns:dc="http://purl.org/dc/elements/1.1/"
   xmlns:cc="http://creativecommons.org/ns#"
   xmlns:rdf="http://www.w3.org/1999/02/22-rdf-syntax-ns#"
   xmlns:svg="http://www.w3.org/2000/svg"
   xmlns="http://www.w3.org/2000/svg"
   xmlns:sodipodi="http://sodipodi.sourceforge.net/DTD/sodipodi-0.dtd"
   xmlns:inkscape="http://www.inkscape.org/namespaces/inkscape"
   version="1.1"
   id="Capa_1"
   x="0px"
   y="0px"
   width="79.421997"
   height="69.315491"
   viewBox="0 0 79.421997 69.315491"
   enable-background="new 0 0 628.254 613.516"
   xml:space="preserve"
   sodipodi:docname="faq.svg"
   inkscape:version="0.92.1 r"><metadata
     id="metadata17"><rdf:RDF><cc:Work
         rdf:about=""><dc:format>image/svg+xml</dc:format><dc:type
           rdf:resource="http://purl.org/dc/dcmitype/StillImage" /><dc:title></dc:title></cc:Work></rdf:RDF></metadata><defs
     id="defs15" /><sodipodi:namedview
     pagecolor="#ffffff"
     bordercolor="#666666"
     borderopacity="1"
     objecttolerance="10"
     gridtolerance="10"
     guidetolerance="10"
     inkscape:pageopacity="0"
     inkscape:pageshadow="2"
     inkscape:window-width="1920"
     inkscape:window-height="1007"
     id="namedview13"
     showgrid="false"
     fit-margin-top="0"
     fit-margin-left="0"
     fit-margin-right="0"
     fit-margin-bottom="0"
     inkscape:zoom="7.9999996"
     inkscape:cx="10.984542"
     inkscape:cy="30.877951"
     inkscape:window-x="0"
     inkscape:window-y="0"
     inkscape:window-maximized="1"
     inkscape:current-layer="Capa_1"
     scale-x="1.1"
     inkscape:snap-page="true" /><g
     aria-label="FAQ"
     style="font-style:normal;font-variant:normal;font-weight:normal;font-stretch:normal;font-size:28.47422791px;line-height:1.25;font-family:'Sony Fixed';-inkscape-font-specification:'Sony Fixed';letter-spacing:0px;word-spacing:0px;fill:#ffffff;fill-opacity:1;stroke:none;stroke-width:0.71185577"
     id="text4555"><path
       d="M 18.849939,19.467944 H 0 v 1.537608 h 0.42711342 c 1.50913408,0 2.07861868,0.113897 2.33488668,0.427114 0.1993196,0.284742 0.1993196,0.370165 0.1993196,2.135567 v 12.357815 c 0,1.765402 0,1.850825 -0.1993196,2.135567 -0.256268,0.313216 -0.8257526,0.427113 -2.33488668,0.427113 H 0 v 1.537609 h 11.389691 v -1.537609 h -0.74033 c -1.5376081,0 -2.1070926,-0.113897 -2.3633607,-0.427113 C 8.0866807,37.776873 8.0866807,37.69145 8.0866807,35.926048 v -5.751794 h 0.4840619 c 2.2494644,0.02847 3.6162274,1.423711 3.9294434,4.04334 h 1.537608 v -9.652763 h -1.537608 c -0.313216,2.648103 -1.679979,4.04334 -3.9294434,4.04334 H 8.0866807 V 23.454336 C 8.0297323,21.46114 8.4283715,21.034027 10.535464,21.005552 h 0.541011 c 3.559278,0.05695 5.267732,1.623031 6.463649,5.865691 h 1.48066 z"
       style="font-style:normal;font-variant:normal;font-weight:bold;font-stretch:normal;font-family:C059;-inkscape-font-specification:'C059 Bold';fill:#ffffff;fill-opacity:1;stroke-width:0.71185577"
       id="path4490"
       inkscape:connector-curvature="0" /><path
       d="m 27.776165,19.040831 -6.46365,15.09134 c -1.309814,3.075217 -2.363361,4.185712 -4.04334,4.356557 v 1.537609 h 8.229052 v -1.537609 c -2.02167,-0.113897 -2.818949,-0.654907 -2.818949,-1.964721 0,-0.484062 0.113897,-0.93965 0.427114,-1.623031 l 0.455587,-1.082021 h 7.090083 l 1.082021,2.790474 c 0.313216,0.797279 0.34169,0.93965 0.34169,1.167444 0,0.512536 -0.398639,0.683381 -1.651505,0.683381 l -0.484062,0.02847 v 1.537609 h 9.994454 v -1.537609 c -1.623031,-0.05695 -2.078618,-0.34169 -2.676577,-1.793876 L 29.940206,19.040831 Z m -0.597959,6.06501 2.762,6.805341 h -5.637897 z"
       style="font-style:normal;font-variant:normal;font-weight:bold;font-stretch:normal;font-family:C059;-inkscape-font-specification:'C059 Bold';fill:#ffffff;fill-opacity:1;stroke-width:0.71185577"
       id="path4492"
       inkscape:connector-curvature="0" /><path
       d="m 51.854239,40.738192 c 0,2.96132 1.679979,4.6413 4.669773,4.6413 2.932846,0 4.897567,-1.8793 4.897567,-4.6413 v -0.199319 h -1.537608 c -0.142371,1.594557 -0.512536,2.192515 -1.395237,2.192515 -0.882701,0 -1.338289,-0.768804 -2.420309,-3.957917 2.989794,-1.964722 4.840618,-5.410104 4.840618,-9.083279 0,-5.922639 -4.726721,-10.649361 -10.649361,-10.649361 -6.121959,0 -10.763258,4.58435 -10.763258,10.649361 0,2.762 0.93965,5.296206 2.733526,7.289402 2.050144,2.334887 4.641299,3.473856 7.858887,3.473856 0.683381,0 1.08202,-0.02847 1.765402,-0.142371 z m 2.648103,-5.694845 c -0.825753,-2.164042 -2.420309,-3.274536 -4.641299,-3.274536 -1.167443,0 -2.306413,0.427113 -3.046742,1.138969 -0.455588,0.427113 -0.711856,0.854227 -1.025073,1.736928 -0.398639,-1.224392 -0.597958,-3.046743 -0.597958,-5.410104 0,-5.751794 1.708453,-8.713113 5.011464,-8.713113 1.793876,0 3.132165,0.911175 3.900969,2.676577 0.711856,1.623031 1.110495,3.872495 1.110495,6.292804 0,2.306413 -0.256268,4.356557 -0.711856,5.552475 z m -2.591155,3.473856 c -0.711855,0.370165 -1.110495,0.455587 -1.793876,0.455587 -1.907773,0 -3.189114,-1.08202 -3.189114,-2.705051 0,-1.67998 1.025073,-2.875897 2.505733,-2.875897 1.679979,0 2.56268,1.309814 2.56268,3.815546 0,0.284742 -0.02847,0.74033 -0.08542,1.309815 z"
       style="font-style:normal;font-variant:normal;font-weight:bold;font-stretch:normal;font-family:C059;-inkscape-font-specification:'C059 Bold';fill:#ffffff;fill-opacity:1;stroke-width:0.71185577"
       id="path4494"
       inkscape:connector-curvature="0" /></g></svg>