<?xml version="1.0" encoding="UTF-8" standalone="no"?>
<!-- Generator: Adobe Illustrator 15.0.2, SVG Export Plug-In . SVG Version: 6.00 Build 0)  -->

<svg
   xmlns:dc="http://purl.org/dc/elements/1.1/"
   xmlns:cc="http://creativecommons.org/ns#"
   xmlns:rdf="http://www.w3.org/1999/02/22-rdf-syntax-ns#"
   xmlns:svg="http://www.w3.org/2000/svg"
   xmlns="http://www.w3.org/2000/svg"
   xmlns:sodipodi="http://sodipodi.sourceforge.net/DTD/sodipodi-0.dtd"
   xmlns:inkscape="http://www.inkscape.org/namespaces/inkscape"
   version="1.1"
   id="Capa_1"
   x="0px"
   y="0px"
   width="257.30908"
   height="69.315491"
   viewBox="0 0 257.30908 69.315491"
   enable-background="new 0 0 628.254 613.516"
   xml:space="preserve"
   sodipodi:docname="logo1.svg"
   inkscape:version="0.92.1 r"><metadata
     id="metadata17"><rdf:RDF><cc:Work
         rdf:about=""><dc:format>image/svg+xml</dc:format><dc:type
           rdf:resource="http://purl.org/dc/dcmitype/StillImage" /><dc:title /></cc:Work></rdf:RDF></metadata><defs
     id="defs15" /><sodipodi:namedview
     pagecolor="#ffffff"
     bordercolor="#666666"
     borderopacity="1"
     objecttolerance="10"
     gridtolerance="10"
     guidetolerance="10"
     inkscape:pageopacity="0"
     inkscape:pageshadow="2"
     inkscape:window-width="1920"
     inkscape:window-height="1007"
     id="namedview13"
     showgrid="false"
     fit-margin-top="0"
     fit-margin-left="0"
     fit-margin-right="0"
     fit-margin-bottom="0"
     inkscape:zoom="2"
     inkscape:cx="63.14932"
     inkscape:cy="81.114226"
     inkscape:window-x="0"
     inkscape:window-y="0"
     inkscape:window-maximized="1"
     inkscape:current-layer="Capa_1"
     scale-x="1.1"
     inkscape:snap-page="true" /><path
     style="fill:#000000;fill-opacity:1;stroke:none;stroke-width:1px;stroke-linecap:butt;stroke-linejoin:miter;stroke-opacity:1"
     d="m 0,0 v 69.315491 h 228.11485 l 29.19423,-28.615488 c 0,0 0,-27.589307 0,-40.700003 z"
     id="path4497"
     inkscape:connector-curvature="0"
     sodipodi:nodetypes="cccccc" /><g
     id="g4511"
     style="fill:#ffffff;fill-opacity:1"
     transform="translate(18.000002,11.500002)"><g
       transform="matrix(0.0370664,0,0,0.03695752,0,8.7665294)"
       id="g10"
       style="fill:#ffffff;fill-opacity:1"><g
         id="g8"
         style="fill:#ffffff;fill-opacity:1"><g
           id="g6"
           style="fill:#ffffff;fill-opacity:1"><g
             id="g4"
             style="fill:#ffffff;fill-opacity:1"><path
               inkscape:connector-curvature="0"
               id="path2"
               d="m 99.777,446.086 c -6.699,12.031 -12.031,30.133 -12.031,41.539 0,2.648 0,6.016 0.656,10.688 L 4.676,354.32 C 1.996,349.648 0,342.945 0,336.906 0,330.859 1.996,323.508 4.676,318.828 L 44.871,248.5 0,223.07 146.016,220.367 217,348.281 171.473,322.164 Z M 164.09,40.227 c 12.715,-22.125 33.496,-34.18 58.926,-34.18 27.48,0 48.918,12.742 64.312,38.828 L 310.105,83.047 231.054,219.711 103.14,145.359 Z m 9.351,521.718 c -38.172,0 -69.645,-31.477 -69.645,-69.648 0,-10.719 4.703,-28.82 11.402,-40.195 l 21.41,-38.172 H 295.366 V 561.946 H 173.441 Z M 300.727,36.18 C 290.691,18.789 277.293,6.703 261.215,0 h 164.746 c 14.738,0 26.113,6.047 32.84,17.445 l 40.852,69.648 44.191,-26.141 -71.016,127.281 -145.305,-2.047 44.871,-25.43 z M 554.59,415.273 c 20.07,0 36.832,-5.359 50.887,-16.055 l -83.07,144.648 c -6.699,11.375 -18.73,18.078 -32.789,18.078 h -78.395 v 51.57 L 336.219,488.28 411.223,363.014 v 52.258 H 554.59 Z m 64.258,-120.562 c 6.043,10.719 9.406,22.094 9.406,34.156 0,24.117 -15.422,49.57 -36.832,61.602 -10.062,5.391 -24.145,8.75 -38.172,8.75 h -44.242 l -79,-136.664 127.918,-73.008 z"
               style="fill:#ffffff;fill-opacity:1" /></g></g></g></g><path
       d="m 33.997829,9.1200008 h -2.48 l -6.24,1.1600002 v 3.24 l 0.72,0.08 c 1.8,0.24 2.24,0.92 2.2,3.28 v 5.76 c -0.04,2.36 -0.16,2.64 -1.76,3.04 l -1.16,0.28 v 3.24 h 11.88 v -3.24 l -0.72,-0.2 c -1.48,-0.36 -1.76,-0.88 -1.76,-3.12 v -7.8 c 1.64,-1.12 3.36,-1.76 4.56,-1.76 1.2,0 1.8,0.88 1.8,2.56 v 7 c 0,2.24 -0.28,2.76 -1.76,3.12 l -0.72,0.2 v 3.24 h 11.92 v -3.24 l -1.2,-0.28 c -1.6,-0.44 -1.72,-0.68 -1.76,-3.04 v -7.52 c 0,-2.16 -0.36,-3.28 -1.48,-4.48 -1.2,-1.3200002 -2.6,-1.8800002 -4.76,-1.8800002 -2.52,0 -4.64,0.6 -7.28,2.0800002 z"
       style="font-style:normal;font-variant:normal;font-weight:bold;font-stretch:normal;font-size:medium;line-height:1.25;font-family:'URW Bookman';-inkscape-font-specification:'URW Bookman Bold';letter-spacing:0px;word-spacing:0px;fill:#ffffff;fill-opacity:1;stroke:none"
       id="path4503"
       inkscape:connector-curvature="0" /><path
       d="m 73.025329,19.040001 c 0,-2.84 -0.32,-4.52 -1.04,-5.84 -1.56,-2.8 -4.76,-4.4400002 -8.64,-4.4400002 -6.16,0 -10.52,4.2800002 -10.52,10.3200002 0,6.12 4.56,10.48 10.88,10.48 3.04,0 5.8,-1.08 7.56,-3 0.76,-0.8 1.24,-1.44 2.24,-3.08 l -3.36,-1.64 c -1.56,2.32 -3.2,3.4 -5.24,3.4 -3.12,0 -4.88,-2.28 -4.84,-6.2 z m -12.72,-3.08 c 0.12,-2.2 1.2,-3.52 3,-3.52 1.8,0 2.56,1 2.64,3.52 z"
       style="font-style:normal;font-variant:normal;font-weight:bold;font-stretch:normal;font-size:medium;line-height:1.25;font-family:'URW Bookman';-inkscape-font-specification:'URW Bookman Bold';letter-spacing:0px;word-spacing:0px;fill:#ffffff;fill-opacity:1;stroke:none"
       id="path4505"
       inkscape:connector-curvature="0" /><path
       d="m 89.013454,16.480001 h -10.92 l -1.88,4.32 h 11 z"
       style="font-style:normal;font-variant:normal;font-weight:bold;font-stretch:normal;font-size:medium;line-height:1.25;font-family:'URW Bookman';-inkscape-font-specification:'URW Bookman Bold';letter-spacing:0px;word-spacing:0px;fill:#ffffff;fill-opacity:1;stroke:none"
       id="path4507"
       inkscape:connector-curvature="0" /><path
       d="M 105.66845,12.520001 V 9.1200008 h -5.48 v -6.36 h -3.759996 c -0.4,4.12 -2.28,6.32 -5.76,6.8 v 3.1600002 h 3.04 v 10.12 c 0,2.44 0.16,3.4 0.64,4.36 0.88,1.6 2.44,2.36 4.8,2.36 3.599996,0 6.119996,-1.2 8.439996,-4 l -2.4,-2.84 c -1.8,1.72 -2.52,2.2 -3.56,2.2 -1.08,0 -1.44,-0.64 -1.44,-2.72 v -9.68 z"
       style="font-style:normal;font-variant:normal;font-weight:bold;font-stretch:normal;font-size:medium;line-height:1.25;font-family:'URW Bookman';-inkscape-font-specification:'URW Bookman Bold';letter-spacing:0px;word-spacing:0px;fill:#ffffff;fill-opacity:1;stroke:none"
       id="path4509"
       inkscape:connector-curvature="0" /><path
       d="m 119.0947,9.1200008 h -2.48 l -7.04,1.1600002 v 3.24 l 0.84,0.08 c 1.8,0.24 2.24,0.92 2.2,3.28 v 5.76 c -0.04,2.36 -0.16,2.6 -1.76,3.04 l -1.28,0.28 v 3.24 h 12.52 v -3.24 l -1.24,-0.28 c -1.6,-0.44 -1.72,-0.68 -1.76,-3.04 z M 115.6147,7.6293945e-7 c -2.16,0 -3.96,1.80000003706055 -3.96,3.92000003706055 0,2.12 1.68,3.84 3.8,3.84 2.16,0 3.96,-1.8 3.96,-3.96 0,-2.16 -1.64,-3.80000003706055 -3.8,-3.80000003706055 z"
       style="font-style:normal;font-variant:normal;font-weight:bold;font-stretch:normal;font-size:medium;line-height:1.25;font-family:'URW Bookman';-inkscape-font-specification:'URW Bookman Bold';letter-spacing:0px;word-spacing:0px;fill:#ffffff;fill-opacity:1;stroke:none"
       id="path4511"
       inkscape:connector-curvature="0" /><path
       d="m 133.5097,14.480001 c 1.52,-1 3.32,-1.64 4.6,-1.64 1.24,0 1.76,0.72 1.76,2.36 v 7.44 c 0,2.24 -0.28,2.76 -1.76,3.12 l -0.72,0.2 v 3.24 h 11.44 v -3.24 l -0.72,-0.2 c -1.48,-0.36 -1.76,-0.88 -1.76,-3.12 v -8.16 c 1.28,-0.8 3.08,-1.4 4.16,-1.4 1.36,0 2.2,0.88 2.2,2.28 v 7.28 c 0,2.24 -0.28,2.76 -1.76,3.12 l -0.72,0.2 v 3.24 h 12.04 v -3.24 l -1.32,-0.28 c -1.6,-0.44 -1.72,-0.68 -1.76,-3.04 v -7.76 c 0,-2 -0.28,-2.96 -1.2,-4.04 -1.24,-1.4000002 -2.92,-2.0800002 -5.24,-2.0800002 -2.6,0 -5.12,0.72 -7.4,2.0800002 -1.48,-1.4000002 -3.28,-2.0800002 -5.48,-2.0800002 -2.64,0 -5.04,0.64 -7.04,1.8400002 V 9.1200008 h -2.48 l -6.4,1.1600002 v 3.24 l 0.88,0.08 c 1.8,0.24 2.24,0.92 2.2,3.28 v 5.76 c -0.04,2.36 -0.16,2.6 -1.76,3.04 l -1.32,0.28 v 3.24 h 12.04 v -3.24 l -0.72,-0.2 c -1.48,-0.36 -1.76,-0.88 -1.76,-3.12 z"
       style="font-style:normal;font-variant:normal;font-weight:bold;font-stretch:normal;font-size:medium;line-height:1.25;font-family:'URW Bookman';-inkscape-font-specification:'URW Bookman Bold';letter-spacing:0px;word-spacing:0px;fill:#ffffff;fill-opacity:1;stroke:none"
       id="path4513"
       inkscape:connector-curvature="0" /><path
       d="m 184.5097,19.040001 c 0,-2.84 -0.32,-4.52 -1.04,-5.84 -1.56,-2.8 -4.76,-4.4400002 -8.64,-4.4400002 -6.16,0 -10.52,4.2800002 -10.52,10.3200002 0,6.12 4.56,10.48 10.88,10.48 3.04,0 5.8,-1.08 7.56,-3 0.76,-0.8 1.24,-1.44 2.24,-3.08 l -3.36,-1.64 c -1.56,2.32 -3.2,3.4 -5.24,3.4 -3.12,0 -4.88,-2.28 -4.84,-6.2 z m -12.72,-3.08 c 0.12,-2.2 1.2,-3.52 3,-3.52 1.8,0 2.56,1 2.64,3.52 z"
       style="font-style:normal;font-variant:normal;font-weight:bold;font-stretch:normal;font-size:medium;line-height:1.25;font-family:'URW Bookman';-inkscape-font-specification:'URW Bookman Bold';letter-spacing:0px;word-spacing:0px;fill:#ffffff;fill-opacity:1;stroke:none"
       id="path4515"
       inkscape:connector-curvature="0" /><path
       d="m 192.36783,22.520001 c -2.04,0 -3.68,1.6 -3.68,3.52 0,2.04 1.6,3.68 3.64,3.68 2,0 3.64,-1.64 3.64,-3.64 0,-1.96 -1.6,-3.56 -3.6,-3.56 z"
       style="font-style:normal;font-variant:normal;font-weight:bold;font-stretch:normal;font-size:medium;line-height:1.25;font-family:'URW Bookman';-inkscape-font-specification:'URW Bookman Bold';letter-spacing:0px;word-spacing:0px;fill:#ffffff;fill-opacity:1;stroke:none"
       id="path4517"
       inkscape:connector-curvature="0" /><path
       d="m 208.84158,9.1200008 h -2.48 l -6.24,1.1600002 v 3.24 l 0.72,0.08 c 1.8,0.24 2.24,0.92 2.2,3.28 v 5.76 c -0.04,2.36 -0.16,2.64 -1.76,3.04 l -1.16,0.28 v 3.24 h 11.88 v -3.24 l -0.72,-0.2 c -1.48,-0.36 -1.76,-0.88 -1.76,-3.12 v -7.8 c 1.64,-1.12 3.36,-1.76 4.56,-1.76 1.2,0 1.8,0.88 1.8,2.56 v 7 c 0,2.24 -0.28,2.76 -1.76,3.12 l -0.72,0.2 v 3.24 h 11.92 v -3.24 l -1.2,-0.28 c -1.6,-0.44 -1.72,-0.68 -1.76,-3.04 v -7.52 c 0,-2.16 -0.36,-3.28 -1.48,-4.48 -1.2,-1.3200002 -2.6,-1.8800002 -4.76,-1.8800002 -2.52,0 -4.64,0.6 -7.28,2.0800002 z"
       style="font-style:normal;font-variant:normal;font-weight:bold;font-stretch:normal;font-size:medium;line-height:1.25;font-family:'URW Bookman';-inkscape-font-specification:'URW Bookman Bold';letter-spacing:0px;word-spacing:0px;fill:#ffffff;fill-opacity:1;stroke:none"
       id="path4519"
       inkscape:connector-curvature="0" /><path
       d="m 236.30908,0.24000076 h -2.64 c -2.48,1.08000004 -4.2,1.48000004 -6.88,1.72000004 v 3.24 l 0.68,0.08 c 2.04,0.36 2.4,0.8 2.36,3.24 V 22.640001 c -0.04,2.36 -0.16,2.6 -1.76,3.04 l -1.28,0.28 v 3.24 h 12.52 v -3.24 l -1.24,-0.28 c -1.6,-0.44 -1.72,-0.68 -1.76,-3.04 z"
       style="font-style:normal;font-variant:normal;font-weight:bold;font-stretch:normal;font-size:medium;line-height:1.25;font-family:'URW Bookman';-inkscape-font-specification:'URW Bookman Bold';letter-spacing:0px;word-spacing:0px;fill:#ffffff;fill-opacity:1;stroke:none"
       id="path4521"
       inkscape:connector-curvature="0" /></g><text
     xml:space="preserve"
     style="font-style:normal;font-weight:normal;font-size:5.33333349px;line-height:1.25;font-family:sans-serif;letter-spacing:0px;word-spacing:0px;fill:#000000;fill-opacity:1;stroke:none"
     x="25.5"
     y="59.190491"
     id="text4501"><tspan
       sodipodi:role="line"
       id="tspan4499"
       x="25.5"
       y="63.909241" /></text>
<g
     aria-label="encrypted image hosting"
     style="font-style:normal;font-weight:normal;font-size:5.33333349px;line-height:1.25;font-family:sans-serif;letter-spacing:0px;word-spacing:0px;fill:#ffffff;fill-opacity:1;stroke:none"
     id="text4505"><path
       d="m 26.608074,57.40859 v 0.730468 h -5.99414 q 0.0931,0.902344 0.651692,1.353516 0.558594,0.451172 1.561198,0.451172 0.809245,0 1.654297,-0.236328 0.852214,-0.24349 1.747396,-0.730469 v 1.976563 q -0.909505,0.34375 -1.81901,0.515625 -0.909506,0.179036 -1.819011,0.179036 -2.177083,0 -3.38737,-1.102865 -1.203125,-1.110026 -1.203125,-3.108073 0,-1.962239 1.181641,-3.086588 1.188802,-1.124349 3.265625,-1.124349 1.890625,0 3.022135,1.138672 1.138672,1.138672 1.138672,3.04362 z m -2.635416,-0.852214 q 0,-0.730469 -0.429688,-1.174479 -0.422526,-0.451172 -1.110026,-0.451172 -0.744792,0 -1.210286,0.422526 -0.465495,0.415365 -0.580079,1.203125 z"
       style="font-style:normal;font-variant:normal;font-weight:bold;font-stretch:normal;font-size:14.66666698px;font-family:sans-serif;-inkscape-font-specification:'sans-serif Bold';fill:#ffffff"
       id="path4502" /><path
       d="m 36.605471,56.556376 v 4.884115 h -2.578126 v -0.794922 -2.94336 q 0,-1.038411 -0.05013,-1.432291 -0.04297,-0.393881 -0.157552,-0.580078 -0.15039,-0.250651 -0.408203,-0.386719 -0.257812,-0.143229 -0.58724,-0.143229 -0.802083,0 -1.260416,0.623047 -0.458334,0.615885 -0.458334,1.711588 v 3.945964 h -2.563802 v -8.020834 h 2.563802 v 1.174479 q 0.580079,-0.701823 1.231771,-1.03125 0.651693,-0.336588 1.439453,-0.336588 1.389323,0 2.105469,0.852213 0.723308,0.852214 0.723308,2.477865 z"
       style="font-style:normal;font-variant:normal;font-weight:bold;font-stretch:normal;font-size:14.66666698px;font-family:sans-serif;-inkscape-font-specification:'sans-serif Bold';fill:#ffffff"
       id="path4504" /><path
       d="m 45.478518,53.670308 v 2.091146 q -0.522787,-0.358073 -1.052735,-0.529948 -0.522786,-0.171875 -1.088541,-0.171875 -1.074219,0 -1.675782,0.630209 -0.594401,0.623046 -0.594401,1.747395 0,1.124349 0.594401,1.754558 0.601563,0.623047 1.675782,0.623047 0.601562,0 1.138672,-0.179037 0.54427,-0.179036 1.002604,-0.529948 v 2.098308 q -0.601563,0.222005 -1.22461,0.329427 -0.615885,0.114583 -1.238932,0.114583 -2.169922,0 -3.394531,-1.110026 -1.22461,-1.117188 -1.22461,-3.100912 0,-1.983724 1.22461,-3.09375 1.224609,-1.117187 3.394531,-1.117187 0.630208,0 1.238932,0.114583 0.615886,0.107422 1.22461,0.329427 z"
       style="font-style:normal;font-variant:normal;font-weight:bold;font-stretch:normal;font-size:14.66666698px;font-family:sans-serif;-inkscape-font-specification:'sans-serif Bold';fill:#ffffff"
       id="path4506" /><path
       d="m 53.664065,55.603902 q -0.336588,-0.157552 -0.673177,-0.229167 -0.329427,-0.07878 -0.666016,-0.07878 -0.988281,0 -1.52539,0.63737 -0.529948,0.630208 -0.529948,1.811849 v 3.695313 h -2.563802 v -8.020834 h 2.563802 v 1.317709 q 0.494141,-0.787761 1.13151,-1.145834 0.644532,-0.365234 1.539714,-0.365234 0.128906,0 0.279297,0.01432 0.15039,0.0072 0.436849,0.04297 z"
       style="font-style:normal;font-variant:normal;font-weight:bold;font-stretch:normal;font-size:14.66666698px;font-family:sans-serif;-inkscape-font-specification:'sans-serif Bold';fill:#ffffff"
       id="path4508" /><path
       d="m 53.900392,53.419657 h 2.563802 l 2.155599,5.442709 1.833333,-5.442709 h 2.563803 l -3.373047,8.779948 q -0.508464,1.339193 -1.188803,1.869141 -0.673177,0.537109 -1.783203,0.537109 h -1.482422 v -1.682942 h 0.802084 q 0.651693,0 0.945312,-0.207683 0.300782,-0.207682 0.465495,-0.744791 l 0.07162,-0.222006 z"
       style="font-style:normal;font-variant:normal;font-weight:bold;font-stretch:normal;font-size:14.66666698px;font-family:sans-serif;-inkscape-font-specification:'sans-serif Bold';fill:#ffffff"
       id="path4510" /><path
       d="m 67.084639,60.280334 v 4.210938 H 64.520837 V 53.419657 h 2.563802 v 1.174479 q 0.529948,-0.701823 1.17448,-1.03125 0.644531,-0.336588 1.482421,-0.336588 1.482422,0 2.434896,1.18164 0.952474,1.17448 0.952474,3.029297 0,1.854818 -0.952474,3.036459 -0.952474,1.174479 -2.434896,1.174479 -0.83789,0 -1.482421,-0.329427 -0.644532,-0.336589 -1.17448,-1.038412 z m 1.704427,-5.192057 q -0.823567,0 -1.267578,0.608724 -0.436849,0.601563 -0.436849,1.740234 0,1.138672 0.436849,1.747396 0.444011,0.601563 1.267578,0.601563 0.823568,0 1.253256,-0.601563 0.436849,-0.601562 0.436849,-1.747396 0,-1.145833 -0.436849,-1.747395 -0.429688,-0.601563 -1.253256,-0.601563 z"
       style="font-style:normal;font-variant:normal;font-weight:bold;font-stretch:normal;font-size:14.66666698px;font-family:sans-serif;-inkscape-font-specification:'sans-serif Bold';fill:#ffffff"
       id="path4512" /><path
       d="m 77.833987,51.142313 v 2.277344 h 2.642578 v 1.833334 h -2.642578 v 3.401692 q 0,0.558594 0.222005,0.759115 0.222005,0.193359 0.88086,0.193359 h 1.317708 v 1.833334 h -2.198568 q -1.518229,0 -2.155599,-0.630209 -0.630208,-0.637369 -0.630208,-2.155599 v -3.401692 h -1.27474 v -1.833334 h 1.27474 v -2.277344 z"
       style="font-style:normal;font-variant:normal;font-weight:bold;font-stretch:normal;font-size:14.66666698px;font-family:sans-serif;-inkscape-font-specification:'sans-serif Bold';fill:#ffffff"
       id="path4514" /><path
       d="m 90.058598,57.40859 v 0.730468 h -5.994141 q 0.0931,0.902344 0.651693,1.353516 0.558593,0.451172 1.561198,0.451172 0.809244,0 1.654297,-0.236328 0.852213,-0.24349 1.747395,-0.730469 v 1.976563 q -0.909505,0.34375 -1.81901,0.515625 -0.909505,0.179036 -1.81901,0.179036 -2.177084,0 -3.38737,-1.102865 -1.203125,-1.110026 -1.203125,-3.108073 0,-1.962239 1.18164,-3.086588 1.188802,-1.124349 3.265625,-1.124349 1.890625,0 3.022136,1.138672 1.138672,1.138672 1.138672,3.04362 z m -2.635417,-0.852214 q 0,-0.730469 -0.429687,-1.174479 -0.422527,-0.451172 -1.110027,-0.451172 -0.744791,0 -1.210286,0.422526 -0.465495,0.415365 -0.580078,1.203125 z"
       style="font-style:normal;font-variant:normal;font-weight:bold;font-stretch:normal;font-size:14.66666698px;font-family:sans-serif;-inkscape-font-specification:'sans-serif Bold';fill:#ffffff"
       id="path4516" /><path
       d="m 97.44922,54.594136 v -4.296875 h 2.57813 v 11.14323 h -2.57813 v -1.160157 q -0.529948,0.708985 -1.167318,1.038412 -0.637369,0.329427 -1.47526,0.329427 -1.482422,0 -2.434896,-1.174479 -0.952474,-1.181641 -0.952474,-3.036459 0,-1.854817 0.952474,-3.029297 0.952474,-1.18164 2.434896,-1.18164 0.830729,0 1.468099,0.336588 0.644531,0.329427 1.174479,1.03125 z m -1.690104,5.192058 q 0.823568,0 1.253255,-0.601563 0.436849,-0.601562 0.436849,-1.747396 0,-1.145833 -0.436849,-1.747395 -0.429687,-0.601563 -1.253255,-0.601563 -0.816406,0 -1.253255,0.601563 -0.429688,0.601562 -0.429688,1.747395 0,1.145834 0.429688,1.747396 0.436849,0.601563 1.253255,0.601563 z"
       style="font-style:normal;font-variant:normal;font-weight:bold;font-stretch:normal;font-size:14.66666698px;font-family:sans-serif;-inkscape-font-specification:'sans-serif Bold';fill:#ffffff"
       id="path4518" /><path
       d="m 107.60417,53.419657 h 2.56381 v 8.020834 h -2.56381 z m 0,-3.122396 h 2.56381 v 2.091146 h -2.56381 z"
       style="font-style:normal;font-variant:normal;font-weight:bold;font-stretch:normal;font-size:14.66666698px;font-family:sans-serif;-inkscape-font-specification:'sans-serif Bold';fill:#ffffff"
       id="path4520" /><path
       d="m 120.07943,54.751688 q 0.48698,-0.744791 1.153,-1.13151 0.67317,-0.39388 1.47526,-0.39388 1.38216,0 2.10547,0.852213 0.7233,0.852214 0.7233,2.477865 v 4.884115 h -2.57812 v -4.182292 q 0.007,-0.0931 0.007,-0.193359 0.007,-0.100261 0.007,-0.286459 0,-0.852213 -0.25065,-1.231771 -0.25065,-0.386718 -0.80925,-0.386718 -0.73046,0 -1.13151,0.601562 -0.39388,0.601563 -0.4082,1.740235 v 3.938802 h -2.57812 v -4.182292 q 0,-1.332031 -0.22917,-1.711589 -0.22917,-0.386718 -0.81641,-0.386718 -0.73763,0 -1.13867,0.608724 -0.40104,0.601562 -0.40104,1.725911 v 3.945964 h -2.57813 v -8.020834 h 2.57813 v 1.174479 q 0.47266,-0.680338 1.08138,-1.024088 0.61588,-0.34375 1.35352,-0.34375 0.83072,0 1.46809,0.401042 0.63737,0.401041 0.9668,1.124348 z"
       style="font-style:normal;font-variant:normal;font-weight:bold;font-stretch:normal;font-size:14.66666698px;font-family:sans-serif;-inkscape-font-specification:'sans-serif Bold';fill:#ffffff"
       id="path4522" /><path
       d="m 131.53776,57.831116 q -0.80208,0 -1.21028,0.272135 -0.40104,0.272135 -0.40104,0.802083 0,0.48698 0.32226,0.766276 0.32943,0.272136 0.90951,0.272136 0.7233,0 1.21744,-0.515625 0.49415,-0.522787 0.49415,-1.303386 v -0.293619 z m 3.91732,-0.966797 v 4.576172 h -2.58528 v -1.188802 q -0.51563,0.730468 -1.16016,1.067057 -0.64453,0.329427 -1.56836,0.329427 -1.24609,0 -2.02669,-0.723307 -0.77344,-0.730469 -0.77344,-1.890625 0,-1.410808 0.9668,-2.069662 0.97395,-0.658854 3.05078,-0.658854 h 1.51107 v -0.200521 q 0,-0.608724 -0.47982,-0.888021 -0.47982,-0.286458 -1.49675,-0.286458 -0.82356,0 -1.53255,0.164714 -0.70898,0.164713 -1.31771,0.49414 v -1.955078 q 0.82357,-0.200521 1.6543,-0.300781 0.83073,-0.107422 1.66146,-0.107422 2.16992,0 3.12956,0.859375 0.96679,0.852213 0.96679,2.778646 z"
       style="font-style:normal;font-variant:normal;font-weight:bold;font-stretch:normal;font-size:14.66666698px;font-family:sans-serif;-inkscape-font-specification:'sans-serif Bold';fill:#ffffff"
       id="path4524" /><path
       d="m 143.3112,60.079814 q -0.52994,0.701823 -1.16731,1.03125 -0.63737,0.329427 -1.47526,0.329427 -1.4681,0 -2.42774,-1.152995 -0.95963,-1.160156 -0.95963,-2.950521 0,-1.797526 0.95963,-2.943359 0.95964,-1.152995 2.42774,-1.152995 0.83789,0 1.47526,0.329427 0.63737,0.329427 1.16731,1.038411 v -1.188802 h 2.57813 v 7.211589 q 0,1.933594 -1.22461,2.950521 -1.21745,1.024088 -3.53776,1.024088 -0.75195,0 -1.45378,-0.114583 -0.70182,-0.114583 -1.4108,-0.350911 v -1.998047 q 0.67317,0.386718 1.3177,0.572916 0.64454,0.19336 1.29623,0.19336 1.26042,0 1.84765,-0.551433 0.58724,-0.551432 0.58724,-1.725911 z m -1.6901,-4.991537 q -0.79492,0 -1.23893,0.58724 -0.44401,0.587239 -0.44401,1.661458 0,1.102865 0.42968,1.675781 0.42969,0.565756 1.25326,0.565756 0.80208,0 1.24609,-0.58724 0.44401,-0.58724 0.44401,-1.654297 0,-1.074219 -0.44401,-1.661458 -0.44401,-0.58724 -1.24609,-0.58724 z"
       style="font-style:normal;font-variant:normal;font-weight:bold;font-stretch:normal;font-size:14.66666698px;font-family:sans-serif;-inkscape-font-specification:'sans-serif Bold';fill:#ffffff"
       id="path4526" /><path
       d="m 156.3737,57.40859 v 0.730468 h -5.99414 q 0.0931,0.902344 0.65169,1.353516 0.5586,0.451172 1.5612,0.451172 0.80924,0 1.6543,-0.236328 0.85221,-0.24349 1.74739,-0.730469 v 1.976563 q -0.9095,0.34375 -1.81901,0.515625 -0.9095,0.179036 -1.81901,0.179036 -2.17708,0 -3.38737,-1.102865 -1.20312,-1.110026 -1.20312,-3.108073 0,-1.962239 1.18164,-3.086588 1.1888,-1.124349 3.26562,-1.124349 1.89063,0 3.02214,1.138672 1.13867,1.138672 1.13867,3.04362 z m -2.63542,-0.852214 q 0,-0.730469 -0.42968,-1.174479 -0.42253,-0.451172 -1.11003,-0.451172 -0.74479,0 -1.21029,0.422526 -0.46549,0.415365 -0.58008,1.203125 z"
       style="font-style:normal;font-variant:normal;font-weight:bold;font-stretch:normal;font-size:14.66666698px;font-family:sans-serif;-inkscape-font-specification:'sans-serif Bold';fill:#ffffff"
       id="path4528" /><path
       d="m 171.47005,56.556376 v 4.884115 h -2.57812 v -0.794922 -2.929037 q 0,-1.052734 -0.0501,-1.446614 -0.043,-0.393881 -0.15755,-0.580078 -0.15039,-0.250651 -0.40821,-0.386719 -0.25781,-0.143229 -0.58724,-0.143229 -0.80208,0 -1.26041,0.623047 -0.45834,0.615885 -0.45834,1.711588 v 3.945964 h -2.5638 v -11.14323 h 2.5638 v 4.296875 q 0.58008,-0.701823 1.23177,-1.03125 0.6517,-0.336588 1.43946,-0.336588 1.38932,0 2.10547,0.852213 0.7233,0.852214 0.7233,2.477865 z"
       style="font-style:normal;font-variant:normal;font-weight:bold;font-stretch:normal;font-size:14.66666698px;font-family:sans-serif;-inkscape-font-specification:'sans-serif Bold';fill:#ffffff"
       id="path4530" /><path
       d="m 177.67904,55.059631 q -0.85221,0 -1.30338,0.615886 -0.44401,0.608724 -0.44401,1.761718 0,1.152995 0.44401,1.768881 0.45117,0.608724 1.30338,0.608724 0.83789,0 1.2819,-0.608724 0.44401,-0.615886 0.44401,-1.768881 0,-1.152994 -0.44401,-1.761718 -0.44401,-0.615886 -1.2819,-0.615886 z m 0,-1.833333 q 2.06966,0 3.22982,1.117187 1.16732,1.117188 1.16732,3.09375 0,1.976563 -1.16732,3.09375 -1.16016,1.117188 -3.22982,1.117188 -2.07682,0 -3.2513,-1.117188 -1.16732,-1.117187 -1.16732,-3.09375 0,-1.976562 1.16732,-3.09375 1.17448,-1.117187 3.2513,-1.117187 z"
       style="font-style:normal;font-variant:normal;font-weight:bold;font-stretch:normal;font-size:14.66666698px;font-family:sans-serif;-inkscape-font-specification:'sans-serif Bold';fill:#ffffff"
       id="path4532" /><path
       d="m 190.21159,53.670308 v 1.947917 q -0.82357,-0.34375 -1.58984,-0.515625 -0.76628,-0.171875 -1.44662,-0.171875 -0.73047,0 -1.08854,0.186198 -0.35091,0.179036 -0.35091,0.558594 0,0.307942 0.26497,0.472656 0.27214,0.164713 0.9668,0.243489 l 0.45117,0.06445 q 1.9694,0.250651 2.64974,0.823567 0.68034,0.572917 0.68034,1.797526 0,1.281901 -0.94531,1.926433 -0.94532,0.644531 -2.82162,0.644531 -0.79492,0 -1.64713,-0.128906 -0.84506,-0.121745 -1.74024,-0.372396 v -1.947917 q 0.76628,0.372396 1.56836,0.558594 0.80925,0.186198 1.63998,0.186198 0.75195,0 1.13151,-0.207682 0.37955,-0.207683 0.37955,-0.615886 0,-0.34375 -0.26497,-0.508463 -0.25781,-0.171875 -1.03841,-0.264974 l -0.45117,-0.05729 q -1.71159,-0.214844 -2.39909,-0.794922 -0.6875,-0.580078 -0.6875,-1.761719 0,-1.274739 0.8737,-1.890625 0.87369,-0.615885 2.67838,-0.615885 0.70899,0 1.48958,0.107422 0.7806,0.107422 1.69727,0.336588 z"
       style="font-style:normal;font-variant:normal;font-weight:bold;font-stretch:normal;font-size:14.66666698px;font-family:sans-serif;-inkscape-font-specification:'sans-serif Bold';fill:#ffffff"
       id="path4534" /><path
       d="m 195.48243,51.142313 v 2.277344 h 2.64258 v 1.833334 h -2.64258 v 3.401692 q 0,0.558594 0.222,0.759115 0.22201,0.193359 0.88086,0.193359 h 1.31771 v 1.833334 h -2.19857 q -1.51823,0 -2.1556,-0.630209 -0.6302,-0.637369 -0.6302,-2.155599 v -3.401692 h -1.27474 v -1.833334 h 1.27474 v -2.277344 z"
       style="font-style:normal;font-variant:normal;font-weight:bold;font-stretch:normal;font-size:14.66666698px;font-family:sans-serif;-inkscape-font-specification:'sans-serif Bold';fill:#ffffff"
       id="path4536" /><path
       d="m 199.70053,53.419657 h 2.5638 v 8.020834 h -2.5638 z m 0,-3.122396 h 2.5638 v 2.091146 h -2.5638 z"
       style="font-style:normal;font-variant:normal;font-weight:bold;font-stretch:normal;font-size:14.66666698px;font-family:sans-serif;-inkscape-font-specification:'sans-serif Bold';fill:#ffffff"
       id="path4538" /><path
       d="m 212.80601,56.556376 v 4.884115 h -2.57813 v -0.794922 -2.94336 q 0,-1.038411 -0.0501,-1.432291 -0.043,-0.393881 -0.15755,-0.580078 -0.15039,-0.250651 -0.4082,-0.386719 -0.25782,-0.143229 -0.58724,-0.143229 -0.80209,0 -1.26042,0.623047 -0.45833,0.615885 -0.45833,1.711588 v 3.945964 h -2.56381 v -8.020834 h 2.56381 v 1.174479 q 0.58007,-0.701823 1.23177,-1.03125 0.65169,-0.336588 1.43945,-0.336588 1.38932,0 2.10547,0.852213 0.72331,0.852214 0.72331,2.477865 z"
       style="font-style:normal;font-variant:normal;font-weight:bold;font-stretch:normal;font-size:14.66666698px;font-family:sans-serif;-inkscape-font-specification:'sans-serif Bold';fill:#ffffff"
       id="path4540" /><path
       d="m 220.65495,60.079814 q -0.52994,0.701823 -1.16731,1.03125 -0.63737,0.329427 -1.47526,0.329427 -1.4681,0 -2.42774,-1.152995 -0.95963,-1.160156 -0.95963,-2.950521 0,-1.797526 0.95963,-2.943359 0.95964,-1.152995 2.42774,-1.152995 0.83789,0 1.47526,0.329427 0.63737,0.329427 1.16731,1.038411 v -1.188802 h 2.57813 v 7.211589 q 0,1.933594 -1.22461,2.950521 -1.21745,1.024088 -3.53776,1.024088 -0.75195,0 -1.45378,-0.114583 -0.70182,-0.114583 -1.4108,-0.350911 v -1.998047 q 0.67317,0.386718 1.3177,0.572916 0.64454,0.19336 1.29623,0.19336 1.26042,0 1.84765,-0.551433 0.58724,-0.551432 0.58724,-1.725911 z m -1.6901,-4.991537 q -0.79492,0 -1.23893,0.58724 -0.44401,0.587239 -0.44401,1.661458 0,1.102865 0.42968,1.675781 0.42969,0.565756 1.25326,0.565756 0.80208,0 1.24609,-0.58724 0.44401,-0.58724 0.44401,-1.654297 0,-1.074219 -0.44401,-1.661458 -0.44401,-0.58724 -1.24609,-0.58724 z"
       style="font-style:normal;font-variant:normal;font-weight:bold;font-stretch:normal;font-size:14.66666698px;font-family:sans-serif;-inkscape-font-specification:'sans-serif Bold';fill:#ffffff"
       id="path4542" /></g></svg>