<?xml version="1.0" encoding="UTF-8" standalone="no"?>
<!-- Generator: Adobe Illustrator 15.0.2, SVG Export Plug-In . SVG Version: 6.00 Build 0)  -->

<svg
   xmlns:dc="http://purl.org/dc/elements/1.1/"
   xmlns:cc="http://creativecommons.org/ns#"
   xmlns:rdf="http://www.w3.org/1999/02/22-rdf-syntax-ns#"
   xmlns:svg="http://www.w3.org/2000/svg"
   xmlns="http://www.w3.org/2000/svg"
   xmlns:sodipodi="http://sodipodi.sourceforge.net/DTD/sodipodi-0.dtd"
   xmlns:inkscape="http://www.inkscape.org/namespaces/inkscape"
   version="1.1"
   id="Capa_1"
   x="0px"
   y="0px"
   width="257.30908"
   height="69.315491"
   viewBox="0 0 257.30908 69.315491"
   enable-background="new 0 0 628.254 613.516"
   xml:space="preserve"
   sodipodi:docname="logo_hover.svg"
   inkscape:version="0.92.2 2405546, 2018-03-11"><metadata
   id="metadata17"><rdf:RDF><cc:Work
       rdf:about=""><dc:format>image/svg+xml</dc:format><dc:type
         rdf:resource="http://purl.org/dc/dcmitype/StillImage" /><dc:title></dc:title></cc:Work></rdf:RDF></metadata><defs
   id="defs15" /><sodipodi:namedview
   pagecolor="#ffffff"
   bordercolor="#666666"
   borderopacity="1"
   objecttolerance="10"
   gridtolerance="10"
   guidetolerance="10"
   inkscape:pageopacity="0"
   inkscape:pageshadow="2"
   inkscape:window-width="956"
   inkscape:window-height="1041"
   id="namedview13"
   showgrid="false"
   fit-margin-top="0"
   fit-margin-left="0"
   fit-margin-right="0"
   fit-margin-bottom="0"
   inkscape:zoom="2"
   inkscape:cx="79.621647"
   inkscape:cy="106.51107"
   inkscape:window-x="0"
   inkscape:window-y="18"
   inkscape:window-maximized="0"
   inkscape:current-layer="g4511"
   scale-x="1.1"
   inkscape:snap-page="true" /><path
   style="fill:#000000;fill-opacity:1;stroke:none;stroke-width:1px;stroke-linecap:butt;stroke-linejoin:miter;stroke-opacity:1"
   d="m 0,0 v 69.315491 h 228.11485 l 29.19423,-28.615488 c 0,0 0,-27.589307 0,-40.700003 z"
   id="path4497"
   inkscape:connector-curvature="0"
   sodipodi:nodetypes="cccccc" /><g
   id="g4511"
   style="fill:#ffffff;fill-opacity:1"
   transform="translate(18.000002,11.500002)"><g
     transform="matrix(0.0370664,0,0,0.03695752,0,8.7665294)"
     id="g10"
     style="fill:#66ccff;fill-opacity:1"><g
       id="g8"
       style="fill:#66ccff;fill-opacity:1"><g
         id="g6"
         style="fill:#66ccff;fill-opacity:1"><g
           id="g4"
           style="fill:#66ccff;fill-opacity:1"><path
             inkscape:connector-curvature="0"
             id="path2"
             d="m 99.777,446.086 c -6.699,12.031 -12.031,30.133 -12.031,41.539 0,2.648 0,6.016 0.656,10.688 L 4.676,354.32 C 1.996,349.648 0,342.945 0,336.906 0,330.859 1.996,323.508 4.676,318.828 L 44.871,248.5 0,223.07 146.016,220.367 217,348.281 171.473,322.164 Z M 164.09,40.227 c 12.715,-22.125 33.496,-34.18 58.926,-34.18 27.48,0 48.918,12.742 64.312,38.828 L 310.105,83.047 231.054,219.711 103.14,145.359 Z m 9.351,521.718 c -38.172,0 -69.645,-31.477 -69.645,-69.648 0,-10.719 4.703,-28.82 11.402,-40.195 l 21.41,-38.172 H 295.366 V 561.946 H 173.441 Z M 300.727,36.18 C 290.691,18.789 277.293,6.703 261.215,0 h 164.746 c 14.738,0 26.113,6.047 32.84,17.445 l 40.852,69.648 44.191,-26.141 -71.016,127.281 -145.305,-2.047 44.871,-25.43 z M 554.59,415.273 c 20.07,0 36.832,-5.359 50.887,-16.055 l -83.07,144.648 c -6.699,11.375 -18.73,18.078 -32.789,18.078 h -78.395 v 51.57 L 336.219,488.28 411.223,363.014 v 52.258 H 554.59 Z m 64.258,-120.562 c 6.043,10.719 9.406,22.094 9.406,34.156 0,24.117 -15.422,49.57 -36.832,61.602 -10.062,5.391 -24.145,8.75 -38.172,8.75 h -44.242 l -79,-136.664 127.918,-73.008 z"
             style="fill:#66ccff;fill-opacity:1" /></g></g></g></g><path
     d="m 33.997829,9.1200008 h -2.48 l -6.24,1.1600002 v 3.24 l 0.72,0.08 c 1.8,0.24 2.24,0.92 2.2,3.28 v 5.76 c -0.04,2.36 -0.16,2.64 -1.76,3.04 l -1.16,0.28 v 3.24 h 11.88 v -3.24 l -0.72,-0.2 c -1.48,-0.36 -1.76,-0.88 -1.76,-3.12 v -7.8 c 1.64,-1.12 3.36,-1.76 4.56,-1.76 1.2,0 1.8,0.88 1.8,2.56 v 7 c 0,2.24 -0.28,2.76 -1.76,3.12 l -0.72,0.2 v 3.24 h 11.92 v -3.24 l -1.2,-0.28 c -1.6,-0.44 -1.72,-0.68 -1.76,-3.04 v -7.52 c 0,-2.16 -0.36,-3.28 -1.48,-4.48 -1.2,-1.3200002 -2.6,-1.8800002 -4.76,-1.8800002 -2.52,0 -4.64,0.6 -7.28,2.0800002 z"
     style="font-style:normal;font-variant:normal;font-weight:bold;font-stretch:normal;font-size:medium;line-height:1.25;font-family:'URW Bookman';-inkscape-font-specification:'URW Bookman Bold';letter-spacing:0px;word-spacing:0px;fill:#66ccff;fill-opacity:1;stroke:none"
     id="path4503"
     inkscape:connector-curvature="0" /><path
     d="m 73.025329,19.040001 c 0,-2.84 -0.32,-4.52 -1.04,-5.84 -1.56,-2.8 -4.76,-4.4400002 -8.64,-4.4400002 -6.16,0 -10.52,4.2800002 -10.52,10.3200002 0,6.12 4.56,10.48 10.88,10.48 3.04,0 5.8,-1.08 7.56,-3 0.76,-0.8 1.24,-1.44 2.24,-3.08 l -3.36,-1.64 c -1.56,2.32 -3.2,3.4 -5.24,3.4 -3.12,0 -4.88,-2.28 -4.84,-6.2 z m -12.72,-3.08 c 0.12,-2.2 1.2,-3.52 3,-3.52 1.8,0 2.56,1 2.64,3.52 z"
     style="font-style:normal;font-variant:normal;font-weight:bold;font-stretch:normal;font-size:medium;line-height:1.25;font-family:'URW Bookman';-inkscape-font-specification:'URW Bookman Bold';letter-spacing:0px;word-spacing:0px;fill:#66ccff;fill-opacity:1;stroke:none"
     id="path4505"
     inkscape:connector-curvature="0" /><path
     d="m 89.013454,16.480001 h -10.92 l -1.88,4.32 h 11 z"
     style="font-style:normal;font-variant:normal;font-weight:bold;font-stretch:normal;font-size:medium;line-height:1.25;font-family:'URW Bookman';-inkscape-font-specification:'URW Bookman Bold';letter-spacing:0px;word-spacing:0px;fill:#66ccff;fill-opacity:1;stroke:none"
     id="path4507"
     inkscape:connector-curvature="0" /><path
     d="M 105.66845,12.520001 V 9.1200008 h -5.48 v -6.36 h -3.759996 c -0.4,4.12 -2.28,6.32 -5.76,6.8 v 3.1600002 h 3.04 v 10.12 c 0,2.44 0.16,3.4 0.64,4.36 0.88,1.6 2.44,2.36 4.8,2.36 3.599996,0 6.119996,-1.2 8.439996,-4 l -2.4,-2.84 c -1.8,1.72 -2.52,2.2 -3.56,2.2 -1.08,0 -1.44,-0.64 -1.44,-2.72 v -9.68 z"
     style="font-style:normal;font-variant:normal;font-weight:bold;font-stretch:normal;font-size:medium;line-height:1.25;font-family:'URW Bookman';-inkscape-font-specification:'URW Bookman Bold';letter-spacing:0px;word-spacing:0px;fill:#66ccff;fill-opacity:1;stroke:none"
     id="path4509"
     inkscape:connector-curvature="0" /><path
     d="m 119.0947,9.1200008 h -2.48 l -7.04,1.1600002 v 3.24 l 0.84,0.08 c 1.8,0.24 2.24,0.92 2.2,3.28 v 5.76 c -0.04,2.36 -0.16,2.6 -1.76,3.04 l -1.28,0.28 v 3.24 h 12.52 v -3.24 l -1.24,-0.28 c -1.6,-0.44 -1.72,-0.68 -1.76,-3.04 z M 115.6147,7.6293945e-7 c -2.16,0 -3.96,1.80000003706055 -3.96,3.92000003706055 0,2.12 1.68,3.84 3.8,3.84 2.16,0 3.96,-1.8 3.96,-3.96 0,-2.16 -1.64,-3.80000003706055 -3.8,-3.80000003706055 z"
     style="font-style:normal;font-variant:normal;font-weight:bold;font-stretch:normal;font-size:medium;line-height:1.25;font-family:'URW Bookman';-inkscape-font-specification:'URW Bookman Bold';letter-spacing:0px;word-spacing:0px;fill:#66ccff;fill-opacity:1;stroke:none"
     id="path4511"
     inkscape:connector-curvature="0" /><path
     d="m 133.5097,14.480001 c 1.52,-1 3.32,-1.64 4.6,-1.64 1.24,0 1.76,0.72 1.76,2.36 v 7.44 c 0,2.24 -0.28,2.76 -1.76,3.12 l -0.72,0.2 v 3.24 h 11.44 v -3.24 l -0.72,-0.2 c -1.48,-0.36 -1.76,-0.88 -1.76,-3.12 v -8.16 c 1.28,-0.8 3.08,-1.4 4.16,-1.4 1.36,0 2.2,0.88 2.2,2.28 v 7.28 c 0,2.24 -0.28,2.76 -1.76,3.12 l -0.72,0.2 v 3.24 h 12.04 v -3.24 l -1.32,-0.28 c -1.6,-0.44 -1.72,-0.68 -1.76,-3.04 v -7.76 c 0,-2 -0.28,-2.96 -1.2,-4.04 -1.24,-1.4000002 -2.92,-2.0800002 -5.24,-2.0800002 -2.6,0 -5.12,0.72 -7.4,2.0800002 -1.48,-1.4000002 -3.28,-2.0800002 -5.48,-2.0800002 -2.64,0 -5.04,0.64 -7.04,1.8400002 V 9.1200008 h -2.48 l -6.4,1.1600002 v 3.24 l 0.88,0.08 c 1.8,0.24 2.24,0.92 2.2,3.28 v 5.76 c -0.04,2.36 -0.16,2.6 -1.76,3.04 l -1.32,0.28 v 3.24 h 12.04 v -3.24 l -0.72,-0.2 c -1.48,-0.36 -1.76,-0.88 -1.76,-3.12 z"
     style="font-style:normal;font-variant:normal;font-weight:bold;font-stretch:normal;font-size:medium;line-height:1.25;font-family:'URW Bookman';-inkscape-font-specification:'URW Bookman Bold';letter-spacing:0px;word-spacing:0px;fill:#66ccff;fill-opacity:1;stroke:none"
     id="path4513"
     inkscape:connector-curvature="0" /><path
     d="m 184.5097,19.040001 c 0,-2.84 -0.32,-4.52 -1.04,-5.84 -1.56,-2.8 -4.76,-4.4400002 -8.64,-4.4400002 -6.16,0 -10.52,4.2800002 -10.52,10.3200002 0,6.12 4.56,10.48 10.88,10.48 3.04,0 5.8,-1.08 7.56,-3 0.76,-0.8 1.24,-1.44 2.24,-3.08 l -3.36,-1.64 c -1.56,2.32 -3.2,3.4 -5.24,3.4 -3.12,0 -4.88,-2.28 -4.84,-6.2 z m -12.72,-3.08 c 0.12,-2.2 1.2,-3.52 3,-3.52 1.8,0 2.56,1 2.64,3.52 z"
     style="font-style:normal;font-variant:normal;font-weight:bold;font-stretch:normal;font-size:medium;line-height:1.25;font-family:'URW Bookman';-inkscape-font-specification:'URW Bookman Bold';letter-spacing:0px;word-spacing:0px;fill:#66ccff;fill-opacity:1;stroke:none"
     id="path4515"
     inkscape:connector-curvature="0" /><path
     d="m 192.36783,22.520001 c -2.04,0 -3.68,1.6 -3.68,3.52 0,2.04 1.6,3.68 3.64,3.68 2,0 3.64,-1.64 3.64,-3.64 0,-1.96 -1.6,-3.56 -3.6,-3.56 z"
     style="font-style:normal;font-variant:normal;font-weight:bold;font-stretch:normal;font-size:medium;line-height:1.25;font-family:'URW Bookman';-inkscape-font-specification:'URW Bookman Bold';letter-spacing:0px;word-spacing:0px;fill:#66ccff;fill-opacity:1;stroke:none"
     id="path4517"
     inkscape:connector-curvature="0" /><path
     d="m 208.84158,9.1200008 h -2.48 l -6.24,1.1600002 v 3.24 l 0.72,0.08 c 1.8,0.24 2.24,0.92 2.2,3.28 v 5.76 c -0.04,2.36 -0.16,2.64 -1.76,3.04 l -1.16,0.28 v 3.24 h 11.88 v -3.24 l -0.72,-0.2 c -1.48,-0.36 -1.76,-0.88 -1.76,-3.12 v -7.8 c 1.64,-1.12 3.36,-1.76 4.56,-1.76 1.2,0 1.8,0.88 1.8,2.56 v 7 c 0,2.24 -0.28,2.76 -1.76,3.12 l -0.72,0.2 v 3.24 h 11.92 v -3.24 l -1.2,-0.28 c -1.6,-0.44 -1.72,-0.68 -1.76,-3.04 v -7.52 c 0,-2.16 -0.36,-3.28 -1.48,-4.48 -1.2,-1.3200002 -2.6,-1.8800002 -4.76,-1.8800002 -2.52,0 -4.64,0.6 -7.28,2.0800002 z"
     style="font-style:normal;font-variant:normal;font-weight:bold;font-stretch:normal;font-size:medium;line-height:1.25;font-family:'URW Bookman';-inkscape-font-specification:'URW Bookman Bold';letter-spacing:0px;word-spacing:0px;fill:#66ccff;fill-opacity:1;stroke:none"
     id="path4519"
     inkscape:connector-curvature="0" /><path
     d="m 236.30908,0.24000076 h -2.64 c -2.48,1.08000004 -4.2,1.48000004 -6.88,1.72000004 v 3.24 l 0.68,0.08 c 2.04,0.36 2.4,0.8 2.36,3.24 V 22.640001 c -0.04,2.36 -0.16,2.6 -1.76,3.04 l -1.28,0.28 v 3.24 h 12.52 v -3.24 l -1.24,-0.28 c -1.6,-0.44 -1.72,-0.68 -1.76,-3.04 z"
     style="font-style:normal;font-variant:normal;font-weight:bold;font-stretch:normal;font-size:medium;line-height:1.25;font-family:'URW Bookman';-inkscape-font-specification:'URW Bookman Bold';letter-spacing:0px;word-spacing:0px;fill:#66ccff;fill-opacity:1;stroke:none"
     id="path4521"
     inkscape:connector-curvature="0" /></g><text
   xml:space="preserve"
   style="font-style:normal;font-weight:normal;font-size:5.33333349px;line-height:1.25;font-family:sans-serif;letter-spacing:0px;word-spacing:0px;fill:#000000;fill-opacity:1;stroke:none"
   x="25.5"
   y="59.190491"
   id="text4501"><tspan
     sodipodi:role="line"
     id="tspan4499"
     x="25.5"
     y="63.909241" /></text>


<g
   aria-label="encrypted image hosting"
   style="font-style:normal;font-weight:normal;font-size:5.33333349px;line-height:1.25;font-family:sans-serif;letter-spacing:0px;word-spacing:0px;fill:#ffffff;fill-opacity:1;stroke:none"
   id="text4505"><text
   xml:space="preserve"
   style="font-style:normal;font-weight:normal;font-size:40px;line-height:1.25;font-family:sans-serif;letter-spacing:0px;word-spacing:0px;fill:#ff0000;fill-opacity:1;stroke:none"
   x="17.324116"
   y="61.537315"
   id="text49"><tspan
     sodipodi:role="line"
     id="tspan47"
     x="17.324116"
     y="61.537315"
     style="font-style:normal;font-variant:normal;font-weight:bold;font-stretch:normal;font-size:16px;font-family:sans-serif;-inkscape-font-specification:'sans-serif Bold';fill:#ffffff">encrypted file hosting</tspan></text>

</g></svg>